<svg xmlns="http://www.w3.org/2000/svg" viewBox="0 0 512 512" width="48px" height="48px"><path fill="#D03827" d="M469.4,289.3c-0.9-26-5.1-52-13.2-76.8c-15.9-49-45.4-93.7-86.9-124.6C292.3,30.5,167.8,9.2,93.3,82 c-34.5,33.8-54.4,82.7-61.6,129.9c-7.2,47.4-2.6,98,19.5,141.1c36.5,71.1,115.3,125.7,196,122.9c0.8-0.3,1.7-0.3,2.7-0.1 c1.5-0.1,2.9-0.2,4.4-0.3c1.1,0.2,2.2,0.3,3.3,0.4c0.9-0.2,1.9-0.3,2.7-0.4c4.2-0.4,8.4-0.7,12.6-1.2c7.7-1.1,15.3-3.8,23.1-3.6 c2.1-0.4,4.2-0.9,6.2-1.2c0.3,0,0.5-0.1,0.7-0.2c4.3-0.9,8.6-1.9,12.9-2.9c9-2.1,17.9-4.6,26.6-7.6c17-5.9,33.6-13.5,48.8-23.3 c29-18.6,53.6-44.4,66.8-76.7C467.2,336.6,470.2,313.1,469.4,289.3z M370.4,242.3c-8.1,21.3-26.1,37.8-45,49.7 c-18.4,11.5-38.9,20.1-60.3,24.3c0.6,13.2,2.6,26.4,1.9,39.7c-0.7,14.3-8.3,27.9-20.8,35.2c-12.3,7.2-27.2,9.6-41.1,6.7 c-17.9-3.7-29.1-15.5-40.2-29.2c-1.8-2.2-1.4-4.4-0.1-6c-0.4-2.4,1.3-4.9,3.7-5.9c0,0,0,0,0,0c0.2-0.3,0.3-0.4,0.3-0.4 c0.1-0.1,0.1-0.2,0.2-0.4c0.8-1.4,1.6-2.8,2.4-4.2c1.9-3.6,3.6-7.2,5.3-10.8c2.7-5.8,5.2-13.2,9.6-18c3.9-4.3,10-0.6,9.5,4.7 c-0.1,1.1,0.2,2.2,1.1,2.9c0.7,0.5,1.6,0.4,1.6,0.7c0.6-0.7,1-1.8,1.3-2.7c1.4-4,1.7-8.6,2-12.8c0.7-10.7,0.8-21.5,0.5-32.2 c-0.6-27.2-4.2-54.4-4.3-81.6c0-2.2,1-3.8,2.5-4.7c1.1-1.4,2.8-2.3,5.1-2.1c17.5,1.8,35-2.9,52.5-3.1c2.8,0,5.9,1.9,5.9,5.1v6.2 c0,0.2,0,0.4,0,0.6c0.6,0.8,1,1.8,1,3.2c0,15.2,0.8,30.4,1,45.6c8.8-0.9,17.8-1.9,26-5.1c11.1-4.4,19.9-13.8,22.5-25.7 c2.6-12.2-0.9-24.8-8.5-34.5c-16.6-21.2-43.4-19.5-67.6-17.9c-16.4,1.1-34.3,2.2-49.3,9.7c-5.8,2.9-11.2,7.4-13.4,13.7 c-2.9,8.1,0,17.3,3.1,24.9c0.8,2.1,0,5.3-2.1,6.4c-8.2,4.1-16.2,8.8-24.2,13.4c-4.8,2.8-9.7,5.7-14.3,8.8 c-1.6,1.1-3.2,2.2-4.7,3.4c-0.1,0.1-0.2,0.2-0.3,0.2c-0.1,0.5-0.3,0.9-0.6,1.4c-0.9,3-3.9,5.2-7.3,3.1 c-19.5-12.1-23.2-39.5-21.9-60.5c1.2-19.3,8.7-35.8,23.5-48.6c16.3-14.1,37.5-22.2,58.4-26.8c20.8-4.6,41.9-6.4,63.1-5.3 c24.2,1.2,48.9,4.9,71.2,15c10.2,4.6,20.6,10.7,28.4,18.9c7.7,8.1,13.6,17.5,18,27.7C374.7,195.5,378.6,220.7,370.4,242.3z"/><path fill="#D6E5E5" d="M363.2,207c-2.6-22-12.4-45.1-30.6-58.5c-19.4-14.3-44.2-20.3-67.8-22.9c-21.5-2.4-43.3-2.3-64.7,1.3 c-21.1,3.5-43,9.8-60.5,22.4c-8,5.7-15.2,12.9-19.7,21.7c-3.8,7.5-5.4,15.7-5.9,24c-0.9,14.2,0.5,35.8,12,46.6 c0.7-0.6,1.5-1.2,2.2-1.7c4.6-3.4,9.5-6.4,14.4-9.3c7.9-4.7,15.9-9.3,24-13.6c-3.1-9.1-4.5-18.9-1.2-28.2 c3-8.5,9.9-14.8,17.8-18.9c15.2-8,33.3-9.9,50.2-11.1c22.6-1.6,48.5-4.2,68.1,9.4c20.2,14,31.9,42.6,20.2,65.7 c-5.4,10.7-13.6,19.1-24.9,23.6c-10.8,4.3-22.4,5.5-33.9,6.6c-2.5,0.2-4.1-0.9-5-2.6c-1.6-0.7-2.9-2.1-2.9-4.5 c0-16.3-1-32.7-1-49c0-0.2,0-0.4,0-0.6c-0.6-0.8-1-1.8-1-3.2v-0.9c-14.7,0.8-29.2,3.7-44,3.1c0.3,15.4,1.7,30.8,2.7,46.2 c1.2,17.6,1.2,35,1.2,52.6c0,9.5,0.7,22.3-4.5,30.8c-3.3,5.3-8.2,7.6-14.4,5.4c-1.6-0.6-3-1.4-4.2-2.4c-0.1,0.2-0.2,0.3-0.2,0.5 c-2.2,4.6-4.4,9.3-6.7,13.9c-1.5,3.1-3.9,8.5-7.1,11.6c8.9,10.6,18.2,20.1,32.5,22.4c11.4,1.9,24,0.3,33.6-6.5 c22.1-15.7,12.1-46,11.9-68.8c0-3.4,2.6-5.4,5.2-5.7c0.3-0.1,0.5-0.2,0.8-0.2c6.4-1.1,12.7-2.6,18.8-4.6 c22.4-7.2,44.9-18.6,61.8-35.2c7.8-7.6,14.7-16.3,18.9-26.5C363.8,229.5,364.5,218,363.2,207z"/><path d="M474.3,243c-4.8-25.3-13.1-49.9-24.6-73c-22.9-46-58.9-84.3-104-109.1c-43.6-24-94-37.5-143.9-35 c-49.8,2.6-96.2,24.4-128.3,62.9c-30.5,36.6-47.5,85-53.1,131.8c-5.7,47.4,0.9,97.5,23.5,139.9c39,73.3,120.8,128.7,204.9,125.2 c6.3,1.4,13.6-0.5,19.9-1c4.4-0.4,8.8-1.1,13.1-1.9c0.4-0.1,0.9-0.2,1.3-0.3c0.3,0,0.6,0,0.9,0c4.2-0.5,8.5-1.2,12.7-1.9 c0.1,0,0.2,0,0.2,0c1.3,0.1,2.3-0.1,3.2-0.7c8-1.6,15.9-3.5,23.8-5.4c11.1-2.8,22-6.3,32.7-10.5c20.8-8.1,40.5-19.3,58.1-33.1 c34.9-27.6,58.5-67.1,63.7-111.6C481.3,294.2,479,267.9,474.3,243z M458.1,358.7c-13.1,32.2-37.8,58-66.8,76.7 c-15.2,9.8-31.8,17.4-48.8,23.3c-8.7,3-17.6,5.5-26.6,7.6c-4.3,1-8.6,2-12.9,2.9c-0.2,0.1-0.4,0.2-0.7,0.2 c-2.1,0.4-4.2,0.8-6.2,1.2c-7.8-0.3-15.4,2.5-23.1,3.6c-4.2,0.6-8.4,0.8-12.6,1.2c-0.8,0.1-1.8,0.2-2.7,0.4 c-1.1-0.1-2.2-0.2-3.3-0.4c-1.5,0.1-2.9,0.2-4.4,0.3c-1-0.2-1.9-0.2-2.7,0.1c-80.8,2.8-159.6-51.8-196-122.9 c-22.1-43.1-26.7-93.7-19.5-141.1c7.2-47.2,27.1-96.1,61.6-129.9c74.4-72.8,199-51.5,275.9,5.8c41.5,30.9,71,75.7,86.9,124.6 c8.1,24.8,12.3,50.8,13.2,76.8C470.2,313.1,467.2,336.6,458.1,358.7z"/><path d="M365.8,174.8c-4.4-10.2-10.3-19.6-18-27.7c-7.8-8.2-18.2-14.2-28.4-18.9c-22.2-10.1-47-13.8-71.2-15 c-21.3-1.1-42.4,0.7-63.1,5.3c-20.8,4.7-42,12.7-58.4,26.8c-14.8,12.8-22.3,29.3-23.5,48.6c-1.3,21,2.3,48.4,21.9,60.5 c3.4,2.1,6.4-0.1,7.3-3.1c0.3-0.4,0.5-0.9,0.6-1.4c0.1-0.1,0.2-0.1,0.3-0.2c1.5-1.2,3.1-2.3,4.7-3.4c4.7-3.1,9.5-6,14.3-8.8 c7.9-4.7,15.9-9.3,24.2-13.4c2.1-1.1,3-4.3,2.1-6.4c-3.1-7.6-6-16.8-3.1-24.9c2.2-6.3,7.6-10.8,13.4-13.7 c15-7.5,32.8-8.6,49.3-9.7c24.2-1.6,51.1-3.3,67.6,17.9c7.7,9.8,11.1,22.3,8.5,34.5c-2.5,11.9-11.4,21.3-22.5,25.7 c-8.2,3.3-17.2,4.3-26,5.1c-0.1-15.2-0.9-30.4-1-45.6c0-1.3-0.4-2.4-1-3.2c0-0.2,0-0.4,0-0.6v-6.2c0-3.1-3.1-5.1-5.9-5.1 c-17.5,0.2-35,4.9-52.5,3.1c-2.2-0.2-4,0.7-5.1,2.1c-1.4,1-2.5,2.5-2.5,4.7c0.1,27.2,3.7,54.4,4.3,81.6 c0.3,10.7,0.1,21.5-0.5,32.2c-0.3,4.2-0.6,8.8-2,12.8c-0.3,0.8-0.7,1.9-1.3,2.7c0.1-0.3-0.9-0.2-1.6-0.7 c-0.9-0.7-1.2-1.8-1.1-2.9c0.5-5.3-5.6-9-9.5-4.7c-4.4,4.8-6.8,12.2-9.6,18c-1.7,3.6-3.4,7.3-5.3,10.8c-0.7,1.4-1.5,2.8-2.4,4.2 c-0.1,0.2-0.2,0.3-0.2,0.4c0,0-0.1,0.2-0.3,0.4c0,0,0,0,0,0c-2.4,1-4.1,3.5-3.7,5.9c-1.3,1.6-1.7,3.9,0.1,6 c11.2,13.7,22.4,25.5,40.2,29.2c13.9,2.9,28.9,0.5,41.1-6.7c12.4-7.3,20.1-20.9,20.8-35.2c0.6-13.3-1.4-26.5-1.9-39.7 c21.4-4.2,41.9-12.8,60.3-24.3c18.9-11.8,36.9-28.4,45-49.7C378.6,220.7,374.7,195.5,365.8,174.8z M359.6,239.8 c-4.2,10.2-11.1,18.9-18.9,26.5c-17,16.6-39.4,28-61.8,35.2c-6.2,2-12.5,3.5-18.8,4.6c-0.3,0-0.6,0.1-0.8,0.2 c-2.7,0.3-5.3,2.3-5.2,5.7c0.2,22.8,10.3,53.1-11.9,68.8c-9.6,6.8-22.2,8.4-33.6,6.5c-14.4-2.3-23.7-11.8-32.5-22.4 c3.2-3.1,5.5-8.5,7.1-11.6c2.3-4.6,4.4-9.3,6.7-13.9c0.1-0.2,0.1-0.3,0.2-0.5c1.2,1,2.6,1.8,4.2,2.4c6.2,2.3,11.1,0,14.4-5.4 c5.2-8.5,4.5-21.2,4.5-30.8c0-17.6,0-35-1.2-52.6c-1.1-15.4-2.4-30.8-2.7-46.2c14.7,0.6,29.3-2.3,44-3.1v0.9c0,1.3,0.4,2.4,1,3.2 c0,0.2,0,0.4,0,0.6c0,16.3,1,32.7,1,49c0,2.4,1.2,3.8,2.9,4.5c0.9,1.6,2.6,2.8,5,2.6c11.5-1.1,23.1-2.3,33.9-6.6 c11.3-4.5,19.4-12.9,24.9-23.6c11.8-23.1,0.1-51.7-20.2-65.7c-19.7-13.6-45.5-11.1-68.1-9.4c-16.9,1.2-34.9,3.1-50.2,11.1 c-7.9,4.1-14.8,10.4-17.8,18.9c-3.3,9.3-1.9,19.1,1.2,28.2c-8.2,4.3-16.2,8.9-24,13.6c-4.9,2.9-9.8,5.9-14.4,9.3 c-0.7,0.5-1.4,1.1-2.2,1.7c-11.4-10.9-12.9-32.4-12-46.6c0.5-8.4,2.2-16.5,5.9-24c4.4-8.9,11.7-16,19.7-21.7 c17.5-12.6,39.5-18.9,60.5-22.4c21.3-3.5,43.2-3.7,64.7-1.3c23.6,2.6,48.4,8.6,67.8,22.9c18.2,13.4,28,36.6,30.6,58.5 C364.5,218,363.8,229.5,359.6,239.8z"/></svg>